# xmcd
#
# Track frame offsets:
#	150
#	13756
#	26783
#	39713
#	52586
#	65686
#	79178
#	92961
#	106736
#	121821
#	133956
#	147381
#	160293
#	174586
#	189306
#	203063
#	217056
#	230261
#	242063
#	255783
#	267441
#	281128
#	292853
#	307388
#	320603
#
# Disc length: 4451 seconds
#
# Revision: 4
# Processed by: cddbd v1.5.2PL0 Copyright (c) Steve Scherf et al.
# Submitted via: EZCDAudioConverter 7.0.9.1
#
DISCID=74116119
DTITLE=Various Artist - Les triomphes du blues 3, Texas Blues
DYEAR=2001
DGENRE=Blues
TTITLE0=Blind Lemon Jefferson - Match box blues - 1927
TTITLE1=Blind Lemon Jefferson - Corrina blues - 1926
TTITLE2=Blind Lemon Jefferson - Black snake moan - 1927
TTITLE3=Blind Lemon Jefferson - Bad luck blues - 1926
TTITLE4=Blind Lemon Jefferson - Easy rider blues - 1927
TTITLE5=Blind Lemon Jefferson - Mosquito Moan - 1929
TTITLE6=Blind Lemon Jefferson - Southern woman blues - 1929
TTITLE7=Blind Lemon Jefferson - Shukin' sugar blues - 1926
TTITLE8=Blind Lemon Jefferson - Long distance Moan - 1929
TTITLE9=Blind Lemon Jefferson - That crawling baby blues - 1929
TTITLE10=Blind Lemon Jefferson - Broke and hungry - 1926
TTITLE11=Blind Lemon Jefferson - Rabbit foot blues - 1926
TTITLE12=T-Bone Walker - Wichita falls blues - 1929
TTITLE13=T-Bone Walker - T-Bone blues - 1940
TTITLE14=T-Bone Walker - T-Bone Boogie - 1945
TTITLE15=T-Bone Walker - Come back to me baby blues - 1945
TTITLE16=T-Bone Walker - I'm gonna find my baby - 1946
TTITLE17=T-Bone Walker - Bobby sox blues - 1946
TTITLE18=T-Bone Walker - Call it stormy monday - 1947
TTITLE19=T-Bone Walker - Dream girl blues - 1947
TTITLE20=T-Bone Walker - Description blues - 1947
TTITLE21=T-Bone Walker - T-Bone shuffle - 1947
TTITLE22=T-Bone Walker - Wise man blues - 1947
TTITLE23=T-Bone Walker - I wish you were mine - 1947
TTITLE24=T-Bone Walker - I'm gonna move you out and get somebody else - 1947
EXTD=
EXTT0=
EXTT1=
EXTT2=
EXTT3=
EXTT4=
EXTT5=
EXTT6=
EXTT7=
EXTT8=
EXTT9=
EXTT10=
EXTT11=
EXTT12=
EXTT13=
EXTT14=
EXTT15=
EXTT16=
EXTT17=
EXTT18=
EXTT19=
EXTT20=
EXTT21=
EXTT22=
EXTT23=
EXTT24=
PLAYORDER=
